# xmcd
# Track frame offsets:
# 150
# 15907
# 32105
# 49712
# 63517
# 89477
# 106632
# 123207
# 138632
# 152360
#
# Disc length: 2300 seconds
# Revision: 0
# Processed by: cddbd v1.5.2PL0 Copyright (c) Steve Scherf et al.
# Submitted via: VisiTrax 2.11.2.271 - For more info visit www.synapsa.com
#
DISCID=7308fa0a
DTITLE=Various Artist - Universal Country
DYEAR=2001
DGENRE=Country
TTITLE0=Gary Allan - Man Of Me
TTITLE1=Trisha Yearwood - Inside Out
TTITLE2=Chely Wright - Never Love You Enough
TTITLE3=Toby Keith - I Wanna Talk About Me
TTITLE4=Earl Scruggs With Sting - Fill Her Up
TTITLE5=Ryan Adams - New York New York
TTITLE6=Beck - Cheatin' Heart
TTITLE7=Billy Bob Thonton - Angelina
TTITLE8=Robert Earl Keen - Hello New Orleans
TTITLE9=John Hartford - Big Rock Candy Mountain
EXTD=
EXTT0=
EXTT1=
EXTT2=
EXTT3=
EXTT4=
EXTT5=
EXTT6=
EXTT7=
EXTT8=
EXTT9=
PLAYORDER=
